0.06m3min_grf.mot
version=1
nRows=22
nColumns 19
inDegrees=yes
endheader
time	1_ground_force_vx	1_ground_force_vy	1_ground_force_vz	1_ground_force_px	1_ground_force_py	1_ground_force_pz	1_ground_torque_x	1_ground_torque_y	1_ground_torque_z	2_ground_force_vx	2_ground_force_vy	2_ground_force_vz	2_ground_force_px	2_ground_force_py	2_ground_force_pz	2_ground_torque_x	2_ground_torque_y	2_ground_torque_z
            2.495000	           15.670020	          212.822119	          -23.751669	           -0.197165	            0.005934	           -0.336407	           -0.017352	           -0.235664	            0.026301	            4.237698	           73.269614	           10.818420	           -0.222720	            0.005528	           -0.655206	            0.022798	            0.394180	            0.058202
            2.495500	           15.304815	          208.133961	          -23.495720	           -0.197061	            0.005939	           -0.337638	           -0.016908	           -0.229939	            0.025957	            4.899598	           71.614488	           10.859155	           -0.223091	            0.005520	           -0.653358	            0.028417	            0.415349	            0.062981
            2.496000	           15.214488	          203.806584	          -23.284764	           -0.197053	            0.005938	           -0.337318	           -0.017490	           -0.234287	            0.026767	            5.653102	           70.512974	           10.667182	           -0.223532	            0.005527	           -0.655762	            0.035223	            0.439342	            0.066464
            2.496500	           15.170100	          200.199885	          -22.979118	           -0.197366	            0.005940	           -0.337708	           -0.019645	           -0.259259	            0.029758	            6.079986	           69.041979	           10.474034	           -0.224591	            0.005524	           -0.656072	            0.033658	            0.382202	            0.057982
            2.497000	           14.850474	          196.953861	          -22.717099	           -0.197589	            0.005939	           -0.337566	           -0.017081	           -0.226530	            0.026129	            6.318244	           67.937768	           10.516920	           -0.224304	            0.005532	           -0.657873	            0.016384	            0.176169	            0.027271
            2.497500	           14.714353	          192.986810	          -22.458628	           -0.197525	            0.005939	           -0.337518	           -0.011913	           -0.156247	            0.018183	            5.763397	           65.909764	           10.603787	           -0.223384	            0.005530	           -0.656545	            0.011024	            0.126071	            0.020283
            2.498000	           15.036496	          189.921176	          -22.197429	           -0.197660	            0.005937	           -0.337003	           -0.011333	           -0.143143	            0.016730	            4.926142	           64.248890	           10.739017	           -0.224051	            0.005527	           -0.656381	            0.009741	            0.127041	            0.021234
            2.498500	           14.718060	          185.772055	          -21.526572	           -0.197442	            0.005937	           -0.337054	           -0.011075	           -0.139784	            0.016198	            4.366396	           63.511932	           10.267347	           -0.223787	            0.005536	           -0.658578	            0.020744	            0.301729	            0.048778
            2.499000	           14.443951	          183.067230	          -21.354060	           -0.198199	            0.005935	           -0.336777	           -0.009823	           -0.124495	            0.014522	            4.654039	           61.672301	           10.026016	           -0.223626	            0.005529	           -0.656320	            0.025328	            0.335624	            0.054562
            2.499500	           14.032753	          179.820992	          -21.045958	           -0.197602	            0.005936	           -0.336845	           -0.014574	           -0.186761	            0.021858	            5.129184	           59.832509	           10.019246	           -0.225122	            0.005520	           -0.655427	            0.033757	            0.393774	            0.065939
            2.500000	           13.988386	          174.231961	          -20.886383	           -0.197412	            0.005940	           -0.337786	           -0.011072	           -0.137910	            0.016532	            5.605638	           57.624588	            9.964234	           -0.224988	            0.005513	           -0.653211	            0.030866	            0.317292	            0.054865
            2.500500	           13.898119	          172.066986	          -20.482727	           -0.198301	            0.005937	           -0.337089	           -0.012056	           -0.149263	            0.017768	            6.129086	           55.415665	           10.237699	           -0.226154	            0.005507	           -0.652790	            0.012994	            0.117486	            0.021705
            2.501000	           13.715959	          167.920053	          -20.316627	           -0.198231	            0.005940	           -0.337810	           -0.007674	           -0.093955	            0.011368	            5.894233	           55.598465	           10.379240	           -0.226950	            0.005522	           -0.657938	            0.004475	            0.042216	            0.007881
            2.501500	           13.625842	          164.313149	          -19.965011	           -0.197728	            0.005939	           -0.337484	           -0.009352	           -0.112778	            0.013703	            5.619013	           53.940952	           10.138805	           -0.226188	            0.005532	           -0.659796	            0.007388	            0.070926	            0.013331
            2.502000	           13.398017	          161.066947	          -19.657364	           -0.198214	            0.005940	           -0.337873	           -0.006437	           -0.077385	            0.009444	            4.782881	           51.913448	            9.803440	           -0.225674	            0.005516	           -0.654969	            0.018103	            0.196485	            0.037105
            2.502500	           13.124495	          157.640273	          -19.304520	           -0.198362	            0.005939	           -0.337666	           -0.006478	           -0.077813	            0.009529	            4.317706	           50.991014	            9.800354	           -0.226767	            0.005508	           -0.653766	            0.027176	            0.320938	            0.061684
            2.503000	           12.942674	          154.754217	          -18.903730	           -0.197889	            0.005941	           -0.338004	           -0.006978	           -0.083436	            0.010192	            4.553661	           50.441758	            9.141289	           -0.227621	            0.005524	           -0.659083	            0.034961	            0.387264	            0.070182
            2.503500	           12.485391	          150.967763	          -18.735400	           -0.198644	            0.005939	           -0.337676	           -0.008635	           -0.104406	            0.012957	            5.075074	           48.785615	            9.322869	           -0.229118	            0.005513	           -0.657482	            0.030687	            0.294985	            0.056371
            2.504000	           12.440724	          148.262589	          -18.471746	           -0.197867	            0.005936	           -0.336805	           -0.005782	           -0.068906	            0.008585	            5.643919	           46.946161	            9.316059	           -0.228250	            0.005513	           -0.656575	            0.012519	            0.104136	            0.020665
            2.504500	           12.075256	          145.016557	          -18.209613	           -0.198211	            0.005938	           -0.337379	           -0.004762	           -0.057192	            0.007182	            5.835368	           45.841446	            9.452822	           -0.230351	            0.005521	           -0.660936	           -0.006892	           -0.054141	           -0.011164
            2.505000	           11.939718	          141.589123	          -17.673687	           -0.198431	            0.005938	           -0.337323	           -0.001528	           -0.018117	            0.002261	            5.607223	           44.182261	            9.728576	           -0.230472	            0.005511	           -0.658157	           -0.001450	           -0.011429	           -0.002517
            2.505500	           11.712594	          137.620875	          -17.139853	           -0.198962	            0.005940	           -0.337856	            0.002181	            0.025627	           -0.003192	            4.998777	           43.996416	            9.587394	           -0.230123	            0.005530	           -0.663308	            0.020647	            0.181720	            0.039599
